inDegrees=no
num_controls=7
num_derivatives=13
num_iterations=88
num_multipliers=7
num_parameters=0
num_slacks=7
num_states=26
objective=5.964700
objective_accelerations=0.377112
objective_balance=0.059426
objective_effort=0.420744
objective_height=5.084819
objective_ligament=0.022600
solver_duration=766.218258
status=Solve_Succeeded
success=true
DataType=double
version=3
OpenSimVersion=4.4-2022-07-23-0e9fedc
endheader
time	/jointset/ground_pelvis/pelvis_tilt/value	/jointset/ground_pelvis/pelvis_tx/value	/jointset/ground_pelvis/pelvis_ty/value	/jointset/hip_r/hip_flexion_r/value	/jointset/hip_r/hip_adduction_r/value	/jointset/hip_r/hip_rotation_r/value	/jointset/back/lumbar_extension/value	/jointset/patellofemoral_r/patellar_flexion_r/value	/jointset/knee_r/knee_flexion_r/value	/jointset/knee_r/knee_adduction_r/value	/jointset/knee_r/knee_rotation_r/value	/jointset/ankle_r/ankle_angle_r/value	/jointset/subtalar_r/subtalar_angle_r/value	/jointset/ground_pelvis/pelvis_tilt/speed	/jointset/ground_pelvis/pelvis_tx/speed	/jointset/ground_pelvis/pelvis_ty/speed	/jointset/hip_r/hip_flexion_r/speed	/jointset/hip_r/hip_adduction_r/speed	/jointset/hip_r/hip_rotation_r/speed	/jointset/back/lumbar_extension/speed	/jointset/patellofemoral_r/patellar_flexion_r/speed	/jointset/knee_r/knee_flexion_r/speed	/jointset/knee_r/knee_adduction_r/speed	/jointset/knee_r/knee_rotation_r/speed	/jointset/ankle_r/ankle_angle_r/speed	/jointset/subtalar_r/subtalar_angle_r/speed	/forceset/tau_hip_flexion_r	/forceset/tau_hip_adduction_r	/forceset/tau_hip_rotation_r	/forceset/tau_knee_flexion_r	/forceset/tau_ankle_angle_r	/forceset/tau_subtalar_angle_r	/forceset/tau_lumbar_extension	lambda_cid13_p0	lambda_cid14_p0	lambda_cid14_p1	lambda_cid14_p2	lambda_cid14_p3	lambda_cid14_p4	lambda_cid14_p5	/jointset/ground_pelvis/pelvis_tilt/accel	/jointset/ground_pelvis/pelvis_tx/accel	/jointset/ground_pelvis/pelvis_ty/accel	/jointset/hip_r/hip_flexion_r/accel	/jointset/hip_r/hip_adduction_r/accel	/jointset/hip_r/hip_rotation_r/accel	/jointset/back/lumbar_extension/accel	/jointset/patellofemoral_r/patellar_flexion_r/accel	/jointset/knee_r/knee_flexion_r/accel	/jointset/knee_r/knee_adduction_r/accel	/jointset/knee_r/knee_rotation_r/accel	/jointset/ankle_r/ankle_angle_r/accel	/jointset/subtalar_r/subtalar_angle_r/accel	gamma_cid13_p0	gamma_cid14_p0	gamma_cid14_p1	gamma_cid14_p2	gamma_cid14_p3	gamma_cid14_p4	gamma_cid14_p5
0	-0.006516526561755492	0.09626113961450583	0.9427240325734468	0.1762555651711513	-0.2321526970963171	-0.2616396022103282	-0.0385979564078546	0.07317816487772	0.07317816487761825	0.174532808905944	0.1745317913979229	0.0324735960626065	-0.003451808740482992	0	0	0	0	0	0	0	0	0	0	0	0	0	0.2270747590952767	-0.1174421283581355	-0.04896685693171647	-0.433215820125518	0.4694122087781342	-0.2018082937943796	-0.1185235952044636	-39.07633080101454	99.11975009077806	-60.30011211364081	-1.337618491820041	-53.75090283447891	-680.9798170767941	16.56789193877684	-1.216315663640415	-0.4687540207662374	-0.4541938360908488	6.646506777268436	0.1459135818345327	2.239206498620644	-4.423220035904605	8.095818785015339	8.095818785017871	-2.476800897456042	0.09175102067022248	3.427190413291116	0.9276044176442226	8.824469042058117e-08	4.425550382327144e-08	-6.115508921592138e-07	2.008642929650023e-07	3.464009940669059e-08	-3.798442694701272e-09	-3.373564002371897e-07
0.01	-0.006572940226075515	0.09623854390016086	0.9427021871516492	0.1765766672520936	-0.2321447155293551	-0.2615204859753438	-0.03882234443012127	0.07357181060199576	0.0735718106024159	0.1744097777254471	0.1745261641944761	0.03264174714647954	-0.003405538326076344	-0.01129928247793717	-0.004458815511143316	-0.004367332958603527	0.06396323080195843	0.001517065335013769	0.02365860996807394	-0.04474157903817945	0.0784283050670867	0.0784283050670717	-0.02434588450120453	-0.001042050290490103	0.03352155271595868	0.0091468793359733	0.2272167374005289	-0.1714225037925182	-0.04845449021169441	-0.4352065043635956	0.4610258636729963	-0.1522777965881956	-0.1183262642268713	-39.08933558272843	98.29746502688755	-39.1969454488185	-4.400543992847195	-54.74448160422079	-681.4911300043946	59.15770558161514	-1.089212225773953	-0.4253892805629116	-0.4277410755453753	6.232657629953978	0.142659710280674	2.404540439330578	-4.479223026920684	7.67119275168784	7.671192751685876	-2.374502233136413	-0.1896178501692348	3.29835272483588	0.8920761019797564	1.081866390960482e-07	4.431377956118191e-08	-7.496630023477363e-07	1.955394841404174e-07	5.510643979304599e-08	-1.163407400436589e-07	-3.77945467117523e-07
0.02	-0.006742842252256108	0.09617317123785672	0.942636720790303	0.1775296869205288	-0.2321239519687651	-0.2611697132015022	-0.03949006748060221	0.07474071065379463	0.07474071065387421	0.1740510836961526	0.1745126295268217	0.03314185676245159	-0.003271029836231356	-0.02269767239171791	-0.008555389591831875	-0.008724187909671057	0.1263835175361111	0.002556398708108161	0.04633130767322884	-0.08866700564237025	0.1550508654994319	0.155050865499403	-0.04713256926954994	-0.001581492431258171	0.06639170639539826	0.01764761508810435	0.2273587157023269	-0.2254028792277009	-0.04794212349471593	-0.4371971886039427	0.4526395185665336	-0.1027472993831418	-0.1181289332507952	-39.12796950383451	97.54757644344613	-18.09586460080861	-7.446274697123417	-55.93500241890703	-680.9346326770899	101.5507793914344	-1.236137150810501	-0.3963057346738411	-0.4520982345837429	6.337917963706722	0.05036718944974287	2.042024046031715	-4.259989549107407	7.734669858067638	7.734669858070384	-2.16496095088213	0.1922726506200365	3.296910605988651	0.7983757008752045	1.281285877715152e-07	4.437205529909238e-08	-8.877751125362588e-07	1.902146753158325e-07	7.557278017940139e-08	-2.288830373926165e-07	-4.185345339978563e-07
0.03	-0.007026107317972571	0.09606769361755768	0.9425276826255192	0.1790993259937269	-0.232094626426492	-0.2605989556155005	-0.04059045801884203	0.07666719936616605	0.07666719936583689	0.1734713896245585	0.1744976641036696	0.03396650898210438	-0.003054313847483054	-0.03383472964025447	-0.0125735818119347	-0.01308274311377967	0.1872497567154097	0.003281684941959382	0.06773129917988692	-0.1310498742384381	0.2299071847997016	0.2299071847997059	-0.06863432691881753	-0.00144892267570146	0.09832361487941824	0.02562003716027424	0.2173720943812947	-0.2022185289182575	-0.04532998519665263	-0.4216711495744954	0.4328829242636848	-0.1148602657687051	-0.1106103690501416	-39.19149179661677	90.75204296742301	-24.50385522836342	-6.47323297867707	-50.66447927637121	-680.4296162818899	87.03083489574949	-1.034386266764803	-0.4095778663971402	-0.4276751048011346	5.916802997296378	0.07946250471235362	2.175702007824508	-4.173251351774182	7.310133442113761	7.310133442116618	-2.117112805577818	-0.08178533696325371	3.109086357061596	0.7852253476634867	1.456015140044862e-07	4.567781997689321e-08	-1.008648735218685e-06	1.903924158325892e-07	9.06942188722812e-08	-3.238701136582012e-07	-4.564871096355929e-07
0.04	-0.00741712220711659	0.0959210336949174	0.9423750707203942	0.1812687926794497	-0.2320588773890542	-0.2598168550537688	-0.042103840410389	0.07933205536622633	0.07933205536626582	0.1726818120515597	0.1744829174841219	0.03510403136406359	-0.002760163660560421	-0.04424763708460122	-0.01679185006008319	-0.0174389359779031	0.2463490399847982	0.003841097750043424	0.08859990288008034	-0.1712653763113759	0.3027243231442748	0.3027243231443025	-0.08910926991325403	-0.001537731919637929	0.1289657388615832	0.03313445472346593	0.2073854730628369	-0.1790341786084406	-0.04271784689233239	-0.4061451105445695	0.4131263299614143	-0.1269732321538268	-0.1030918048479089	-39.27869279970479	84.0231218836871	-30.92703267553257	-5.46710082990016	-45.5706135760822	-678.9218659164446	72.30129854324218	-1.091307189973569	-0.4363209402816793	-0.451625766586767	5.984526781724235	0.01719250429588864	1.935746484735912	-3.826516244481729	7.326833666928576	7.326833666929341	-1.959598019914746	0.1479968507243993	3.038953705618936	0.7067747990793826	1.630235325582305e-07	4.700930607613508e-08	-1.129166925169027e-06	1.906836109749407e-07	1.057054534065327e-07	-4.184952266024793e-07	-4.943853246291523e-07
0.05	-0.007909107413044356	0.09573179949972958	0.9421787178378814	0.1840206678695056	-0.2320188172794631	-0.2588301497485085	-0.04400885449769142	0.08271618308526708	0.08271618308551394	0.1716935091999709	0.1744678951216087	0.03654261833967093	-0.002393359604470669	-0.05403675967427613	-0.0210258078658641	-0.02184273201883121	0.303693324760236	0.004119632588478318	0.108621391535291	-0.2094457814770539	0.3738281248448709	0.3738281248449083	-0.1083299309023835	-0.00145972182844305	0.1586358664529036	0.04014919753460289	0.2004316766846956	-0.1730947741889912	-0.04079309600841605	-0.3977382968787042	0.4007984858659076	-0.1261858270758233	-0.09764424089962218	-39.38814025802461	80.1720824602089	-31.33123685205332	-5.320549780371366	-43.28470418978635	-677.8566373861069	70.12614151764024	-0.905800405042729	-0.4125347680433877	-0.4365047108026968	5.559487540139772	0.02536596759589535	2.017442718778082	-3.770053702962926	6.961156297968567	6.961156297970223	-1.870250115433139	-0.0611701942761969	2.913705678810055	0.687093565693573	1.572216950132931e-07	3.993405237543877e-08	-1.084942410306226e-06	1.736667930688731e-07	1.084762617579943e-07	-4.765552728342445e-07	-4.760614600198694e-07
0.06	-0.008495600967171998	0.09550110541302533	0.9419379773573632	0.1873360075501923	-0.2319775354226587	-0.2576468110240401	-0.04628692284674146	0.08680314939694471	0.08680314939697246	0.1705196097422694	0.1744538782021839	0.03827443926979026	-0.001958754211560293	-0.06314930672707969	-0.02508382836337033	-0.02631645557896473	0.3590419381232187	0.004085447186101004	0.1279265867051099	-0.2458762286569736	0.443292041599186	0.4432920415992305	-0.1262285909723153	-0.001336643040910728	0.1876125297610693	0.04669472208823175	0.1934778803057128	-0.1671553697696803	-0.03886834512813884	-0.3893314832127434	0.3884706417702066	-0.1253984219979592	-0.09219667695186436	-39.5182720301312	76.38190574265418	-31.74266518146982	-5.152422404141819	-41.16454649649179	-675.8870537297562	67.77352139067486	-0.9559920826003003	-0.4011334786254711	-0.4656112704279069	5.585392499232845	-0.04535154386705103	1.792487787655801	-3.47652464733047	6.998856677672396	6.998856677672667	-1.695197836074227	0.1570105899937708	2.900260848989261	0.6129311475776161	1.504420108957796e-07	3.25048306831661e-08	-1.033781360503924e-06	1.559212167186616e-07	1.107316837438649e-07	-5.330757373096932e-07	-4.553703499536249e-07
